<svg id="SvgjsSvg1013" width="288" height="288" xmlns="http://www.w3.org/2000/svg" version="1.1" xmlns:xlink="http://www.w3.org/1999/xlink" xmlns:svgjs="http://svgjs.com/svgjs"><defs id="SvgjsDefs1014"></defs><g id="SvgjsG1015"><svg xmlns="http://www.w3.org/2000/svg" xmlns:svgjs="http://svgjs.com/svgjs" xmlns:xlink="http://www.w3.org/1999/xlink" viewBox="0 0 288 288" width="288" height="288"><svg xmlns="http://www.w3.org/2000/svg" viewBox="0 0 128 128" width="288" height="288"><polygon fill="#303a52" points="53.03 58.97 58.38 74.4 74.97 69.03 69.62 53.6 53.03 58.97" class="color2d333a svgShape color303a52"></polygon><polygon fill="#303a52" points="53.03 58.97 58.38 74.4 74.97 69.03 69.62 53.6 53.03 58.97" class="color2d333a svgShape color303a52"></polygon><path fill="#303a52" d="M120.91,47.51C108.1,6.27,89.61-3.35,46.93,9S-5.72,39.26,7.09,80.49s31.3,50.85,74,38.48S133.72,88.74,120.91,47.51ZM99.32,74.27l-8,2.6,2.79,8A6.17,6.17,0,0,1,90,92.8a6.63,6.63,0,0,1-2.21.32,6.42,6.42,0,0,1-5.94-4.24l-2.79-8L62.47,86.2l2.79,8a6.17,6.17,0,0,1-4.06,7.87,6.63,6.63,0,0,1-2.21.32A6.42,6.42,0,0,1,53,98.19l-2.79-8-8,2.6a6.64,6.64,0,0,1-2.21.32,6.42,6.42,0,0,1-5.94-4.24A6.17,6.17,0,0,1,38.12,81l8-2.6L40.82,62.92l-8,2.6a6.63,6.63,0,0,1-2.21.32,6.42,6.42,0,0,1-5.94-4.24,6.17,6.17,0,0,1,4.06-7.87l8-2.6-2.79-8A6.17,6.17,0,0,1,38,35.2a6.49,6.49,0,0,1,8.15,3.92l2.79,8,16.6-5.37-2.79-8a6.17,6.17,0,0,1,4.06-7.87A6.49,6.49,0,0,1,75,29.81l2.79,8,8-2.6a6.49,6.49,0,0,1,8.15,3.92A6.17,6.17,0,0,1,89.88,47l-8,2.6,5.35,15.43,8-2.6a6.49,6.49,0,0,1,8.15,3.92A6.17,6.17,0,0,1,99.32,74.27Z" class="color2d333a svgShape color303a52"></path></svg></svg></g></svg>